<svg id="f6dfe51c-dbb9-489a-b69c-b664bc31685b" data-name="Layer 1" xmlns="http://www.w3.org/2000/svg" viewBox="0 0 554.76 88.66"><defs><style>.d3cf5087-f668-465f-856e-9a2e308301cc{opacity:0.6;}.\31 36f096c-a907-42d6-b57e-be362a058995{fill:#fa4be8;}</style></defs><title>marrow_highlight</title><g class="d3cf5087-f668-465f-856e-9a2e308301cc"><path class="136f096c-a907-42d6-b57e-be362a058995" d="M94.18,3.1V85.56H76V22.31h-.24L54.11,85.56H40.25L19.4,22.31h-.23V85.56H1V3.1H28.49l19,53.81h.23L66.81,3.1H94.18m2-2H65.39l-.47,1.33L47.59,51.24,30.37,2.43,29.9,1.1H-1V87.56H21.17V34.06L38.35,86.18l.45,1.38H55.54L56,86.21,74,33.64V87.56H96.18V1.1Z"/><path class="136f096c-a907-42d6-b57e-be362a058995" d="M153.11,3.1l17.94,41.23L189,85.56H168.49l-7.11-17.47h-32l-6.87,17.47h-20l17.82-41.23L138.09,3.1h15M135.06,52.71h20.15L150.14,39.9l-5.07-12.81-2.5,6.41-2.5,6.4-5,12.81M154.42,1.1H136.77l-.52,1.2L118.43,43.53,100.61,84.77,99.4,87.56h24.44l.5-1.27,6.37-16.2H160l6.6,16.22.51,1.25H192l-1.22-2.8L172.88,43.53,154.94,2.3l-.52-1.2ZM138,50.71l3.94-10.08,2.5-6.41.66-1.66,3.19,8.08,4,10.07H138Z"/><path class="136f096c-a907-42d6-b57e-be362a058995" d="M229.17,3.1a56.07,56.07,0,0,1,11.94,1.22A28.18,28.18,0,0,1,251,8.4a20.32,20.32,0,0,1,6.75,7.68,26.05,26.05,0,0,1,2.51,12.06A24.21,24.21,0,0,1,255.72,43q-4.54,6.1-13.28,7.74l21,34.83H241.63l-17.24-33h-9v33H197.25V3.1h31.92M215.42,37.22h10.72c1.63,0,3.36-.06,5.18-.17a16.41,16.41,0,0,0,5-1,8.46,8.46,0,0,0,3.67-2.74A8.33,8.33,0,0,0,241.4,28a8.67,8.67,0,0,0-1.29-5,8.52,8.52,0,0,0-3.26-2.85,14.36,14.36,0,0,0-4.54-1.34,37.59,37.59,0,0,0-5-.35H215.42V37.22M229.17,1.1H195.25V87.56h22.17v-33h5.76l16.68,31.89.56,1.07H267l-1.83-3L245.57,52.05a21.59,21.59,0,0,0,11.76-7.87,26.31,26.31,0,0,0,4.94-16,28.13,28.13,0,0,0-2.73-13,22.38,22.38,0,0,0-7.42-8.42,30.48,30.48,0,0,0-10.59-4.38A58.73,58.73,0,0,0,229.17,1.1ZM217.42,20.47h9.88a35.1,35.1,0,0,1,4.74.33A12.51,12.51,0,0,1,236,22a6.55,6.55,0,0,1,2.51,2.2A6.87,6.87,0,0,1,239.4,28a6.43,6.43,0,0,1-1,4,6.48,6.48,0,0,1-2.82,2.11,14.4,14.4,0,0,1-4.35.91c-1.77.12-3.47.17-5.05.17h-8.72V20.47Z"/><path class="136f096c-a907-42d6-b57e-be362a058995" d="M304.64,3.1a56.07,56.07,0,0,1,11.94,1.22,28.18,28.18,0,0,1,9.9,4.08,20.32,20.32,0,0,1,6.75,7.68,26.05,26.05,0,0,1,2.51,12.06A24.27,24.27,0,0,1,331.2,43q-4.54,6.1-13.28,7.74l21,34.83H317.1l-17.24-33h-9v33H272.73V3.1h31.91M290.9,37.22h10.71c1.63,0,3.36-.06,5.19-.17a16.34,16.34,0,0,0,4.94-1,8.46,8.46,0,0,0,3.67-2.74A8.33,8.33,0,0,0,316.87,28a8.75,8.75,0,0,0-1.28-5,8.59,8.59,0,0,0-3.26-2.85,14.44,14.44,0,0,0-4.54-1.34,37.59,37.59,0,0,0-5-.35H290.9V37.22M304.64,1.1H270.73V87.56H292.9v-33h5.75l16.68,31.89.56,1.07h26.53l-1.82-3L321.05,52.05a21.6,21.6,0,0,0,11.75-7.87,26.24,26.24,0,0,0,4.94-16,28.13,28.13,0,0,0-2.73-13,22.3,22.3,0,0,0-7.42-8.42A30.4,30.4,0,0,0,317,2.36,58.73,58.73,0,0,0,304.64,1.1ZM292.9,20.47h9.88a35,35,0,0,1,4.73.33A12.51,12.51,0,0,1,311.43,22a6.55,6.55,0,0,1,2.51,2.2,6.79,6.79,0,0,1,.93,3.87,6.5,6.5,0,0,1-1,4A6.51,6.51,0,0,1,311,34.14a14.34,14.34,0,0,1-4.34.91c-1.78.12-3.48.17-5.06.17H292.9V20.47Z"/><path class="136f096c-a907-42d6-b57e-be362a058995" d="M388.27,1a50.81,50.81,0,0,1,17.82,3,40.79,40.79,0,0,1,14.09,8.68,39.2,39.2,0,0,1,9.26,13.68,46.65,46.65,0,0,1,3.32,17.94,46.57,46.57,0,0,1-3.32,17.93A39.34,39.34,0,0,1,420.18,76a40.79,40.79,0,0,1-14.09,8.68,53.92,53.92,0,0,1-35.64,0A40.74,40.74,0,0,1,356.35,76a39.47,39.47,0,0,1-9.26-13.69,46.57,46.57,0,0,1-3.32-17.93,46.65,46.65,0,0,1,3.32-17.94,39.34,39.34,0,0,1,9.26-13.68A40.74,40.74,0,0,1,370.45,4a50.73,50.73,0,0,1,17.82-3m0,69.88a27,27,0,0,0,10.54-2,23.63,23.63,0,0,0,8.09-5.53A24.34,24.34,0,0,0,412.08,55a30.06,30.06,0,0,0,1.81-10.65,30.21,30.21,0,0,0-1.81-10.6,24.32,24.32,0,0,0-5.18-8.45,23.77,23.77,0,0,0-8.09-5.53,29,29,0,0,0-21.08,0,23.72,23.72,0,0,0-8.1,5.53,24.32,24.32,0,0,0-5.18,8.45,30.21,30.21,0,0,0-1.81,10.6A30.06,30.06,0,0,0,364.45,55a24.34,24.34,0,0,0,5.18,8.39,23.58,23.58,0,0,0,8.1,5.53,26.94,26.94,0,0,0,10.54,2m0-71.88a53.06,53.06,0,0,0-18.52,3.15A43,43,0,0,0,355,11.26a41.59,41.59,0,0,0-9.73,14.37,48.78,48.78,0,0,0-3.47,18.7A48.85,48.85,0,0,0,345.24,63,41.72,41.72,0,0,0,355,77.4a42.82,42.82,0,0,0,14.78,9.1,55.82,55.82,0,0,0,37,0,43,43,0,0,0,14.78-9.1A41.59,41.59,0,0,0,431.29,63a48.85,48.85,0,0,0,3.47-18.7,48.78,48.78,0,0,0-3.47-18.7,41.45,41.45,0,0,0-9.73-14.37,43,43,0,0,0-14.78-9.11A53,53,0,0,0,388.27-1Zm0,69.88a25.13,25.13,0,0,1-9.77-1.82A21.72,21.72,0,0,1,371.08,62a22.55,22.55,0,0,1-4.76-7.7,28.47,28.47,0,0,1-1.68-10,28.63,28.63,0,0,1,1.68-9.91,22.59,22.59,0,0,1,4.76-7.76,21.7,21.7,0,0,1,7.42-5.06,27,27,0,0,1,19.53,0,21.79,21.79,0,0,1,7.42,5.06,22.29,22.29,0,0,1,4.76,7.76,28.71,28.71,0,0,1,1.68,9.91,28.23,28.23,0,0,1-1.68,10A22.35,22.35,0,0,1,405.45,62,21.72,21.72,0,0,1,398,67.06a25.08,25.08,0,0,1-9.76,1.82Z"/><path class="136f096c-a907-42d6-b57e-be362a058995" d="M553.42,3.1,529.31,85.56H513.12L495,28.49h-.23L476.55,85.56H460.94L436.48,3.1h19.8L469.45,56h.23L486.92,3.1H503.8l17.13,54.27h.23L535,3.1h18.4m2.67-2H533.47l-.39,1.5L520.85,50.49l-15.14-48-.44-1.39h-19.8L485,2.48,469.8,49.14,458.22,2.61l-.37-1.51H433.8l.77,2.56L459,86.13l.42,1.43H478l.45-1.39,16.38-51.46,16.38,51.46.44,1.39h19.15l.42-1.44L555.34,3.66l.75-2.56Z"/></g></svg>